M48
; DRILL file {KiCad (6.0.5)} date Sun Dec 18 12:48:11 2022
; FORMAT={-:-/ absolute / inch / decimal}
; #@! TF.CreationDate,2022-12-18T12:48:11-06:00
; #@! TF.GenerationSoftware,Kicad,Pcbnew,(6.0.5)
; #@! TF.FileFunction,Plated,1,2,PTH
FMAT,2
INCH
; #@! TA.AperFunction,Plated,PTH,ViaDrill
T1C0.0157
; #@! TA.AperFunction,Plated,PTH,ComponentDrill
T2C0.0276
; #@! TA.AperFunction,Plated,PTH,ComponentDrill
T3C0.0409
; #@! TA.AperFunction,Plated,PTH,ComponentDrill
T4C0.0579
%
G90
G05
T1
X4.2812Y-5.0312
X4.2812Y-5.375
X4.2812Y-5.5312
X4.2817Y-5.1245
X4.4688Y-5.5625
X4.7812Y-5.0312
X4.8438Y-5.4062
X4.9688Y-5.2188
X5.0625Y-5.1875
X5.375Y-5.1875
T3
X5.2938Y-5.0125
X5.2938Y-5.7625
X5.3937Y-5.0125
X5.3937Y-5.7625
X6.0438Y-5.0125
X6.0438Y-5.7625
X6.1437Y-5.0125
X6.1437Y-5.7625
T4
X5.1937Y-4.7125
X5.1937Y-5.4625
X5.2453Y-4.655
X5.2453Y-5.405
X5.4422Y-4.6353
X5.4422Y-5.3853
X5.4437Y-4.6125
X5.4437Y-5.3625
X5.9437Y-4.7125
X5.9437Y-5.4625
X5.9953Y-4.655
X5.9953Y-5.405
X6.1922Y-4.6353
X6.1922Y-5.3853
X6.1937Y-4.6125
X6.1937Y-5.3625
T2
G00X3.8201Y-4.5438
M15
G01X3.8674Y-4.5438
M16
G05
G00X3.8201Y-4.8312
M15
G01X3.8674Y-4.8312
M16
G05
G00X3.9973Y-4.5438
M15
G01X4.0445Y-4.5438
M16
G05
G00X3.9973Y-4.8312
M15
G01X4.0445Y-4.8312
M16
G05
T0
M30
