%TF.GenerationSoftware,KiCad,Pcbnew,(6.0.5)*%
%TF.CreationDate,2022-12-18T12:47:56-06:00*%
%TF.ProjectId,ai03-pcb-tutorial,61693033-2d70-4636-922d-7475746f7269,rev?*%
%TF.SameCoordinates,Original*%
%TF.FileFunction,Legend,Top*%
%TF.FilePolarity,Positive*%
%FSLAX46Y46*%
G04 Gerber Fmt 4.6, Leading zero omitted, Abs format (unit mm)*
G04 Created by KiCad (PCBNEW (6.0.5)) date 2022-12-18 12:47:56*
%MOMM*%
%LPD*%
G01*
G04 APERTURE LIST*
%ADD10C,0.150000*%
%ADD11C,0.120000*%
G04 APERTURE END LIST*
D10*
X112324107Y-113847619D02*
X112371726Y-113800000D01*
X112466964Y-113752380D01*
X112705059Y-113752380D01*
X112800297Y-113800000D01*
X112847916Y-113847619D01*
X112895535Y-113942857D01*
X112895535Y-114038095D01*
X112847916Y-114180952D01*
X112276488Y-114752380D01*
X112895535Y-114752380D01*
X113228869Y-114752380D02*
X113752678Y-114085714D01*
X113228869Y-114085714D02*
X113752678Y-114752380D01*
X114086011Y-113847619D02*
X114133630Y-113800000D01*
X114228869Y-113752380D01*
X114466964Y-113752380D01*
X114562202Y-113800000D01*
X114609821Y-113847619D01*
X114657440Y-113942857D01*
X114657440Y-114038095D01*
X114609821Y-114180952D01*
X114038392Y-114752380D01*
X114657440Y-114752380D01*
X115847916Y-114752380D02*
X115847916Y-113752380D01*
X115847916Y-114133333D02*
X115943154Y-114085714D01*
X116133630Y-114085714D01*
X116228869Y-114133333D01*
X116276488Y-114180952D01*
X116324107Y-114276190D01*
X116324107Y-114561904D01*
X116276488Y-114657142D01*
X116228869Y-114704761D01*
X116133630Y-114752380D01*
X115943154Y-114752380D01*
X115847916Y-114704761D01*
X116657440Y-114085714D02*
X116895535Y-114752380D01*
X117133630Y-114085714D02*
X116895535Y-114752380D01*
X116800297Y-114990476D01*
X116752678Y-115038095D01*
X116657440Y-115085714D01*
X118705059Y-114752380D02*
X118705059Y-113752380D01*
X118705059Y-114704761D02*
X118609821Y-114752380D01*
X118419345Y-114752380D01*
X118324107Y-114704761D01*
X118276488Y-114657142D01*
X118228869Y-114561904D01*
X118228869Y-114276190D01*
X118276488Y-114180952D01*
X118324107Y-114133333D01*
X118419345Y-114085714D01*
X118609821Y-114085714D01*
X118705059Y-114133333D01*
X119609821Y-114752380D02*
X119609821Y-114228571D01*
X119562202Y-114133333D01*
X119466964Y-114085714D01*
X119276488Y-114085714D01*
X119181250Y-114133333D01*
X119609821Y-114704761D02*
X119514583Y-114752380D01*
X119276488Y-114752380D01*
X119181250Y-114704761D01*
X119133630Y-114609523D01*
X119133630Y-114514285D01*
X119181250Y-114419047D01*
X119276488Y-114371428D01*
X119514583Y-114371428D01*
X119609821Y-114323809D01*
X120228869Y-114752380D02*
X120133630Y-114704761D01*
X120086011Y-114609523D01*
X120086011Y-113752380D01*
X120990773Y-114704761D02*
X120895535Y-114752380D01*
X120705059Y-114752380D01*
X120609821Y-114704761D01*
X120562202Y-114609523D01*
X120562202Y-114228571D01*
X120609821Y-114133333D01*
X120705059Y-114085714D01*
X120895535Y-114085714D01*
X120990773Y-114133333D01*
X121038392Y-114228571D01*
X121038392Y-114323809D01*
X120562202Y-114419047D01*
%TO.C,Y1*%
X118313690Y-147319940D02*
X118789880Y-147319940D01*
X117789880Y-147653273D02*
X118313690Y-147319940D01*
X117789880Y-146986607D01*
X118789880Y-146129464D02*
X118789880Y-146700892D01*
X118789880Y-146415178D02*
X117789880Y-146415178D01*
X117932738Y-146510416D01*
X118027976Y-146605654D01*
X118075595Y-146700892D01*
%TO.C,USB1*%
X99115630Y-120800595D02*
X99925154Y-120800595D01*
X100020392Y-120752976D01*
X100068011Y-120705357D01*
X100115630Y-120610119D01*
X100115630Y-120419642D01*
X100068011Y-120324404D01*
X100020392Y-120276785D01*
X99925154Y-120229166D01*
X99115630Y-120229166D01*
X100068011Y-119800595D02*
X100115630Y-119657738D01*
X100115630Y-119419642D01*
X100068011Y-119324404D01*
X100020392Y-119276785D01*
X99925154Y-119229166D01*
X99829916Y-119229166D01*
X99734678Y-119276785D01*
X99687059Y-119324404D01*
X99639440Y-119419642D01*
X99591821Y-119610119D01*
X99544202Y-119705357D01*
X99496583Y-119752976D01*
X99401345Y-119800595D01*
X99306107Y-119800595D01*
X99210869Y-119752976D01*
X99163250Y-119705357D01*
X99115630Y-119610119D01*
X99115630Y-119372023D01*
X99163250Y-119229166D01*
X99591821Y-118467261D02*
X99639440Y-118324404D01*
X99687059Y-118276785D01*
X99782297Y-118229166D01*
X99925154Y-118229166D01*
X100020392Y-118276785D01*
X100068011Y-118324404D01*
X100115630Y-118419642D01*
X100115630Y-118800595D01*
X99115630Y-118800595D01*
X99115630Y-118467261D01*
X99163250Y-118372023D01*
X99210869Y-118324404D01*
X99306107Y-118276785D01*
X99401345Y-118276785D01*
X99496583Y-118324404D01*
X99544202Y-118372023D01*
X99591821Y-118467261D01*
X99591821Y-118800595D01*
X100115630Y-117276785D02*
X100115630Y-117848214D01*
X100115630Y-117562500D02*
X99115630Y-117562500D01*
X99258488Y-117657738D01*
X99353726Y-117752976D01*
X99401345Y-117848214D01*
%TO.C,U1*%
X115125595Y-126146130D02*
X115125595Y-126955654D01*
X115173214Y-127050892D01*
X115220833Y-127098511D01*
X115316071Y-127146130D01*
X115506547Y-127146130D01*
X115601785Y-127098511D01*
X115649404Y-127050892D01*
X115697023Y-126955654D01*
X115697023Y-126146130D01*
X116697023Y-127146130D02*
X116125595Y-127146130D01*
X116411309Y-127146130D02*
X116411309Y-126146130D01*
X116316071Y-126288988D01*
X116220833Y-126384226D01*
X116125595Y-126431845D01*
%TO.C,SW1*%
X101060416Y-150518761D02*
X101203273Y-150566380D01*
X101441369Y-150566380D01*
X101536607Y-150518761D01*
X101584226Y-150471142D01*
X101631845Y-150375904D01*
X101631845Y-150280666D01*
X101584226Y-150185428D01*
X101536607Y-150137809D01*
X101441369Y-150090190D01*
X101250892Y-150042571D01*
X101155654Y-149994952D01*
X101108035Y-149947333D01*
X101060416Y-149852095D01*
X101060416Y-149756857D01*
X101108035Y-149661619D01*
X101155654Y-149614000D01*
X101250892Y-149566380D01*
X101488988Y-149566380D01*
X101631845Y-149614000D01*
X101965178Y-149566380D02*
X102203273Y-150566380D01*
X102393750Y-149852095D01*
X102584226Y-150566380D01*
X102822321Y-149566380D01*
X103727083Y-150566380D02*
X103155654Y-150566380D01*
X103441369Y-150566380D02*
X103441369Y-149566380D01*
X103346130Y-149709238D01*
X103250892Y-149804476D01*
X103155654Y-149852095D01*
%TO.C,R4*%
X120246130Y-123197916D02*
X119769940Y-123531250D01*
X120246130Y-123769345D02*
X119246130Y-123769345D01*
X119246130Y-123388392D01*
X119293750Y-123293154D01*
X119341369Y-123245535D01*
X119436607Y-123197916D01*
X119579464Y-123197916D01*
X119674702Y-123245535D01*
X119722321Y-123293154D01*
X119769940Y-123388392D01*
X119769940Y-123769345D01*
X119579464Y-122340773D02*
X120246130Y-122340773D01*
X119198511Y-122578869D02*
X119912797Y-122816964D01*
X119912797Y-122197916D01*
%TO.C,R3*%
X111639880Y-123197916D02*
X111163690Y-123531250D01*
X111639880Y-123769345D02*
X110639880Y-123769345D01*
X110639880Y-123388392D01*
X110687500Y-123293154D01*
X110735119Y-123245535D01*
X110830357Y-123197916D01*
X110973214Y-123197916D01*
X111068452Y-123245535D01*
X111116071Y-123293154D01*
X111163690Y-123388392D01*
X111163690Y-123769345D01*
X110639880Y-122864583D02*
X110639880Y-122245535D01*
X111020833Y-122578869D01*
X111020833Y-122436011D01*
X111068452Y-122340773D01*
X111116071Y-122293154D01*
X111211309Y-122245535D01*
X111449404Y-122245535D01*
X111544642Y-122293154D01*
X111592261Y-122340773D01*
X111639880Y-122436011D01*
X111639880Y-122721726D01*
X111592261Y-122816964D01*
X111544642Y-122864583D01*
%TO.C,R2*%
X105958630Y-123197916D02*
X105482440Y-123531250D01*
X105958630Y-123769345D02*
X104958630Y-123769345D01*
X104958630Y-123388392D01*
X105006250Y-123293154D01*
X105053869Y-123245535D01*
X105149107Y-123197916D01*
X105291964Y-123197916D01*
X105387202Y-123245535D01*
X105434821Y-123293154D01*
X105482440Y-123388392D01*
X105482440Y-123769345D01*
X105053869Y-122816964D02*
X105006250Y-122769345D01*
X104958630Y-122674107D01*
X104958630Y-122436011D01*
X105006250Y-122340773D01*
X105053869Y-122293154D01*
X105149107Y-122245535D01*
X105244345Y-122245535D01*
X105387202Y-122293154D01*
X105958630Y-122864583D01*
X105958630Y-122245535D01*
%TO.C,R1*%
X101321130Y-139866666D02*
X100844940Y-140200000D01*
X101321130Y-140438095D02*
X100321130Y-140438095D01*
X100321130Y-140057142D01*
X100368750Y-139961904D01*
X100416369Y-139914285D01*
X100511607Y-139866666D01*
X100654464Y-139866666D01*
X100749702Y-139914285D01*
X100797321Y-139961904D01*
X100844940Y-140057142D01*
X100844940Y-140438095D01*
X101321130Y-138914285D02*
X101321130Y-139485714D01*
X101321130Y-139200000D02*
X100321130Y-139200000D01*
X100463988Y-139295238D01*
X100559226Y-139390476D01*
X100606845Y-139485714D01*
%TO.C,F1*%
X118429821Y-123364583D02*
X118429821Y-123697916D01*
X118953630Y-123697916D02*
X117953630Y-123697916D01*
X117953630Y-123221726D01*
X118953630Y-122316964D02*
X118953630Y-122888392D01*
X118953630Y-122602678D02*
X117953630Y-122602678D01*
X118096488Y-122697916D01*
X118191726Y-122793154D01*
X118239345Y-122888392D01*
%TO.C,C7*%
X104245892Y-134310416D02*
X104293511Y-134358035D01*
X104341130Y-134500892D01*
X104341130Y-134596130D01*
X104293511Y-134738988D01*
X104198273Y-134834226D01*
X104103035Y-134881845D01*
X103912559Y-134929464D01*
X103769702Y-134929464D01*
X103579226Y-134881845D01*
X103483988Y-134834226D01*
X103388750Y-134738988D01*
X103341130Y-134596130D01*
X103341130Y-134500892D01*
X103388750Y-134358035D01*
X103436369Y-134310416D01*
X103341130Y-133977083D02*
X103341130Y-133310416D01*
X104341130Y-133738988D01*
%TO.C,C6*%
X97895892Y-129547916D02*
X97943511Y-129595535D01*
X97991130Y-129738392D01*
X97991130Y-129833630D01*
X97943511Y-129976488D01*
X97848273Y-130071726D01*
X97753035Y-130119345D01*
X97562559Y-130166964D01*
X97419702Y-130166964D01*
X97229226Y-130119345D01*
X97133988Y-130071726D01*
X97038750Y-129976488D01*
X96991130Y-129833630D01*
X96991130Y-129738392D01*
X97038750Y-129595535D01*
X97086369Y-129547916D01*
X96991130Y-128690773D02*
X96991130Y-128881250D01*
X97038750Y-128976488D01*
X97086369Y-129024107D01*
X97229226Y-129119345D01*
X97419702Y-129166964D01*
X97800654Y-129166964D01*
X97895892Y-129119345D01*
X97943511Y-129071726D01*
X97991130Y-128976488D01*
X97991130Y-128786011D01*
X97943511Y-128690773D01*
X97895892Y-128643154D01*
X97800654Y-128595535D01*
X97562559Y-128595535D01*
X97467321Y-128643154D01*
X97419702Y-128690773D01*
X97372083Y-128786011D01*
X97372083Y-128976488D01*
X97419702Y-129071726D01*
X97467321Y-129119345D01*
X97562559Y-129166964D01*
%TO.C,C5*%
X102658392Y-129547916D02*
X102706011Y-129595535D01*
X102753630Y-129738392D01*
X102753630Y-129833630D01*
X102706011Y-129976488D01*
X102610773Y-130071726D01*
X102515535Y-130119345D01*
X102325059Y-130166964D01*
X102182202Y-130166964D01*
X101991726Y-130119345D01*
X101896488Y-130071726D01*
X101801250Y-129976488D01*
X101753630Y-129833630D01*
X101753630Y-129738392D01*
X101801250Y-129595535D01*
X101848869Y-129547916D01*
X101753630Y-128643154D02*
X101753630Y-129119345D01*
X102229821Y-129166964D01*
X102182202Y-129119345D01*
X102134583Y-129024107D01*
X102134583Y-128786011D01*
X102182202Y-128690773D01*
X102229821Y-128643154D01*
X102325059Y-128595535D01*
X102563154Y-128595535D01*
X102658392Y-128643154D01*
X102706011Y-128690773D01*
X102753630Y-128786011D01*
X102753630Y-129024107D01*
X102706011Y-129119345D01*
X102658392Y-129166964D01*
%TO.C,C4*%
X107605892Y-139866666D02*
X107653511Y-139914285D01*
X107701130Y-140057142D01*
X107701130Y-140152380D01*
X107653511Y-140295238D01*
X107558273Y-140390476D01*
X107463035Y-140438095D01*
X107272559Y-140485714D01*
X107129702Y-140485714D01*
X106939226Y-140438095D01*
X106843988Y-140390476D01*
X106748750Y-140295238D01*
X106701130Y-140152380D01*
X106701130Y-140057142D01*
X106748750Y-139914285D01*
X106796369Y-139866666D01*
X107034464Y-139009523D02*
X107701130Y-139009523D01*
X106653511Y-139247619D02*
X107367797Y-139485714D01*
X107367797Y-138866666D01*
%TO.C,C3*%
X97895892Y-134310416D02*
X97943511Y-134358035D01*
X97991130Y-134500892D01*
X97991130Y-134596130D01*
X97943511Y-134738988D01*
X97848273Y-134834226D01*
X97753035Y-134881845D01*
X97562559Y-134929464D01*
X97419702Y-134929464D01*
X97229226Y-134881845D01*
X97133988Y-134834226D01*
X97038750Y-134738988D01*
X96991130Y-134596130D01*
X96991130Y-134500892D01*
X97038750Y-134358035D01*
X97086369Y-134310416D01*
X96991130Y-133977083D02*
X96991130Y-133358035D01*
X97372083Y-133691369D01*
X97372083Y-133548511D01*
X97419702Y-133453273D01*
X97467321Y-133405654D01*
X97562559Y-133358035D01*
X97800654Y-133358035D01*
X97895892Y-133405654D01*
X97943511Y-133453273D01*
X97991130Y-133548511D01*
X97991130Y-133834226D01*
X97943511Y-133929464D01*
X97895892Y-133977083D01*
%TO.C,C2*%
X109008392Y-147010416D02*
X109056011Y-147058035D01*
X109103630Y-147200892D01*
X109103630Y-147296130D01*
X109056011Y-147438988D01*
X108960773Y-147534226D01*
X108865535Y-147581845D01*
X108675059Y-147629464D01*
X108532202Y-147629464D01*
X108341726Y-147581845D01*
X108246488Y-147534226D01*
X108151250Y-147438988D01*
X108103630Y-147296130D01*
X108103630Y-147200892D01*
X108151250Y-147058035D01*
X108198869Y-147010416D01*
X108198869Y-146629464D02*
X108151250Y-146581845D01*
X108103630Y-146486607D01*
X108103630Y-146248511D01*
X108151250Y-146153273D01*
X108198869Y-146105654D01*
X108294107Y-146058035D01*
X108389345Y-146058035D01*
X108532202Y-146105654D01*
X109103630Y-146677083D01*
X109103630Y-146058035D01*
%TO.C,C1*%
X120120892Y-147010416D02*
X120168511Y-147058035D01*
X120216130Y-147200892D01*
X120216130Y-147296130D01*
X120168511Y-147438988D01*
X120073273Y-147534226D01*
X119978035Y-147581845D01*
X119787559Y-147629464D01*
X119644702Y-147629464D01*
X119454226Y-147581845D01*
X119358988Y-147534226D01*
X119263750Y-147438988D01*
X119216130Y-147296130D01*
X119216130Y-147200892D01*
X119263750Y-147058035D01*
X119311369Y-147010416D01*
X120216130Y-146058035D02*
X120216130Y-146629464D01*
X120216130Y-146343750D02*
X119216130Y-146343750D01*
X119358988Y-146438988D01*
X119454226Y-146534226D01*
X119501845Y-146629464D01*
D11*
%TO.C,Y1*%
X117537500Y-144843750D02*
X114237500Y-144843750D01*
X114237500Y-144843750D02*
X114237500Y-148843750D01*
D10*
%TO.C,USB1*%
X103081250Y-115212500D02*
X103081250Y-122912500D01*
X97631250Y-122912500D02*
X103081250Y-122912500D01*
X97631250Y-115212500D02*
X103081250Y-115212500D01*
%TO.C,U1*%
X110712500Y-139318750D02*
X110712500Y-138643750D01*
X110712500Y-139318750D02*
X111387500Y-139318750D01*
X121062500Y-139318750D02*
X121062500Y-138643750D01*
X121062500Y-128968750D02*
X121062500Y-129643750D01*
X110712500Y-128968750D02*
X111387500Y-128968750D01*
X121062500Y-139318750D02*
X120387500Y-139318750D01*
X110712500Y-129543750D02*
X109437500Y-129543750D01*
X121062500Y-128968750D02*
X120387500Y-128968750D01*
X110712500Y-128968750D02*
X110712500Y-129543750D01*
%TO.C,SW1*%
X103393750Y-146050000D02*
G75*
G03*
X103393750Y-146050000I-1000000J0D01*
G01*
X99793750Y-148650000D02*
X99793750Y-143450000D01*
X104993750Y-148650000D02*
X99793750Y-148650000D01*
X104993750Y-143450000D02*
X104993750Y-148650000D01*
X99793750Y-143450000D02*
X104993750Y-143450000D01*
D11*
%TO.C,R4*%
X120708750Y-123258314D02*
X120708750Y-122804186D01*
X122178750Y-123258314D02*
X122178750Y-122804186D01*
%TO.C,R3*%
X110272500Y-122804186D02*
X110272500Y-123258314D01*
X108802500Y-122804186D02*
X108802500Y-123258314D01*
%TO.C,R2*%
X106421250Y-123258314D02*
X106421250Y-122804186D01*
X107891250Y-123258314D02*
X107891250Y-122804186D01*
%TO.C,R1*%
X99953750Y-139472936D02*
X99953750Y-139927064D01*
X98483750Y-139472936D02*
X98483750Y-139927064D01*
%TO.C,F1*%
X115771250Y-122429186D02*
X115771250Y-123633314D01*
X117591250Y-122429186D02*
X117591250Y-123633314D01*
%TO.C,C7*%
X106303750Y-134405002D02*
X106303750Y-133882498D01*
X104833750Y-134405002D02*
X104833750Y-133882498D01*
%TO.C,C6*%
X98483750Y-129642502D02*
X98483750Y-129119998D01*
X99953750Y-129642502D02*
X99953750Y-129119998D01*
%TO.C,C5*%
X104716250Y-129642502D02*
X104716250Y-129119998D01*
X103246250Y-129642502D02*
X103246250Y-129119998D01*
%TO.C,C4*%
X104833750Y-139438748D02*
X104833750Y-139961252D01*
X106303750Y-139438748D02*
X106303750Y-139961252D01*
%TO.C,C3*%
X99953750Y-134405002D02*
X99953750Y-133882498D01*
X98483750Y-134405002D02*
X98483750Y-133882498D01*
%TO.C,C2*%
X111066250Y-147105002D02*
X111066250Y-146582498D01*
X109596250Y-147105002D02*
X109596250Y-146582498D01*
%TO.C,C1*%
X122178750Y-147105002D02*
X122178750Y-146582498D01*
X120708750Y-147105002D02*
X120708750Y-146582498D01*
%TD*%
M02*
