%TF.GenerationSoftware,KiCad,Pcbnew,(6.0.5)*%
%TF.CreationDate,2022-12-18T12:47:56-06:00*%
%TF.ProjectId,ai03-pcb-tutorial,61693033-2d70-4636-922d-7475746f7269,rev?*%
%TF.SameCoordinates,Original*%
%TF.FileFunction,Soldermask,Top*%
%TF.FilePolarity,Negative*%
%FSLAX46Y46*%
G04 Gerber Fmt 4.6, Leading zero omitted, Abs format (unit mm)*
G04 Created by KiCad (PCBNEW (6.0.5)) date 2022-12-18 12:47:56*
%MOMM*%
%LPD*%
G01*
G04 APERTURE LIST*
G04 Aperture macros list*
%AMRoundRect*
0 Rectangle with rounded corners*
0 $1 Rounding radius*
0 $2 $3 $4 $5 $6 $7 $8 $9 X,Y pos of 4 corners*
0 Add a 4 corners polygon primitive as box body*
4,1,4,$2,$3,$4,$5,$6,$7,$8,$9,$2,$3,0*
0 Add four circle primitives for the rounded corners*
1,1,$1+$1,$2,$3*
1,1,$1+$1,$4,$5*
1,1,$1+$1,$6,$7*
1,1,$1+$1,$8,$9*
0 Add four rect primitives between the rounded corners*
20,1,$1+$1,$2,$3,$4,$5,0*
20,1,$1+$1,$4,$5,$6,$7,0*
20,1,$1+$1,$6,$7,$8,$9,0*
20,1,$1+$1,$8,$9,$2,$3,0*%
G04 Aperture macros list end*
%ADD10C,3.987800*%
%ADD11C,1.750000*%
%ADD12R,1.200000X1.400000*%
%ADD13R,2.250000X0.500000*%
%ADD14O,2.700000X1.700000*%
%ADD15R,1.500000X0.550000*%
%ADD16R,0.550000X1.500000*%
%ADD17R,1.800000X1.100000*%
%ADD18RoundRect,0.250000X0.450000X-0.262500X0.450000X0.262500X-0.450000X0.262500X-0.450000X-0.262500X0*%
%ADD19RoundRect,0.250000X-0.450000X0.262500X-0.450000X-0.262500X0.450000X-0.262500X0.450000X0.262500X0*%
%ADD20RoundRect,0.250000X-0.625000X0.375000X-0.625000X-0.375000X0.625000X-0.375000X0.625000X0.375000X0*%
%ADD21RoundRect,0.250000X0.475000X-0.250000X0.475000X0.250000X-0.475000X0.250000X-0.475000X-0.250000X0*%
%ADD22RoundRect,0.250000X-0.475000X0.250000X-0.475000X-0.250000X0.475000X-0.250000X0.475000X0.250000X0*%
G04 APERTURE END LIST*
D10*
%TO.C,MX4*%
X154781250Y-141287500D03*
D11*
X149701250Y-141287500D03*
X159861250Y-141287500D03*
%TD*%
D10*
%TO.C,MX1*%
X135731250Y-122237500D03*
D11*
X130651250Y-122237500D03*
X140811250Y-122237500D03*
%TD*%
D12*
%TO.C,Y1*%
X115037500Y-145743750D03*
X115037500Y-147943750D03*
X116737500Y-147943750D03*
X116737500Y-145743750D03*
%TD*%
D13*
%TO.C,USB1*%
X102131250Y-120662500D03*
X102131250Y-119862500D03*
X102131250Y-119062500D03*
X102131250Y-118262500D03*
X102131250Y-117462500D03*
D14*
X102131250Y-115412500D03*
X102131250Y-122712500D03*
X97631250Y-122712500D03*
X97631250Y-115412500D03*
%TD*%
D15*
%TO.C,U1*%
X110187500Y-130143750D03*
X110187500Y-130943750D03*
X110187500Y-131743750D03*
X110187500Y-132543750D03*
X110187500Y-133343750D03*
X110187500Y-134143750D03*
X110187500Y-134943750D03*
X110187500Y-135743750D03*
X110187500Y-136543750D03*
X110187500Y-137343750D03*
X110187500Y-138143750D03*
D16*
X111887500Y-139843750D03*
X112687500Y-139843750D03*
X113487500Y-139843750D03*
X114287500Y-139843750D03*
X115087500Y-139843750D03*
X115887500Y-139843750D03*
X116687500Y-139843750D03*
X117487500Y-139843750D03*
X118287500Y-139843750D03*
X119087500Y-139843750D03*
X119887500Y-139843750D03*
D15*
X121587500Y-138143750D03*
X121587500Y-137343750D03*
X121587500Y-136543750D03*
X121587500Y-135743750D03*
X121587500Y-134943750D03*
X121587500Y-134143750D03*
X121587500Y-133343750D03*
X121587500Y-132543750D03*
X121587500Y-131743750D03*
X121587500Y-130943750D03*
X121587500Y-130143750D03*
D16*
X119887500Y-128443750D03*
X119087500Y-128443750D03*
X118287500Y-128443750D03*
X117487500Y-128443750D03*
X116687500Y-128443750D03*
X115887500Y-128443750D03*
X115087500Y-128443750D03*
X114287500Y-128443750D03*
X113487500Y-128443750D03*
X112687500Y-128443750D03*
X111887500Y-128443750D03*
%TD*%
D17*
%TO.C,SW1*%
X105493750Y-147900000D03*
X99293750Y-144200000D03*
X105493750Y-144200000D03*
X99293750Y-147900000D03*
%TD*%
D18*
%TO.C,R4*%
X121443750Y-123943750D03*
X121443750Y-122118750D03*
%TD*%
D19*
%TO.C,R3*%
X109537500Y-122118750D03*
X109537500Y-123943750D03*
%TD*%
D18*
%TO.C,R2*%
X107156250Y-123943750D03*
X107156250Y-122118750D03*
%TD*%
D19*
%TO.C,R1*%
X99218750Y-138787500D03*
X99218750Y-140612500D03*
%TD*%
D10*
%TO.C,MX3*%
X135731250Y-141287500D03*
D11*
X130651250Y-141287500D03*
X140811250Y-141287500D03*
%TD*%
%TO.C,MX2*%
X159861250Y-122237500D03*
X149701250Y-122237500D03*
D10*
X154781250Y-122237500D03*
%TD*%
D20*
%TO.C,F1*%
X116681250Y-121631250D03*
X116681250Y-124431250D03*
%TD*%
D21*
%TO.C,C7*%
X105568750Y-135093750D03*
X105568750Y-133193750D03*
%TD*%
%TO.C,C6*%
X99218750Y-128431250D03*
X99218750Y-130331250D03*
%TD*%
%TO.C,C5*%
X103981250Y-130331250D03*
X103981250Y-128431250D03*
%TD*%
D22*
%TO.C,C4*%
X105568750Y-138750000D03*
X105568750Y-140650000D03*
%TD*%
D21*
%TO.C,C3*%
X99218750Y-135093750D03*
X99218750Y-133193750D03*
%TD*%
%TO.C,C2*%
X110331250Y-147793750D03*
X110331250Y-145893750D03*
%TD*%
%TO.C,C1*%
X121443750Y-147793750D03*
X121443750Y-145893750D03*
%TD*%
M02*
