%TF.GenerationSoftware,KiCad,Pcbnew,(6.0.5)*%
%TF.CreationDate,2022-12-18T12:47:56-06:00*%
%TF.ProjectId,ai03-pcb-tutorial,61693033-2d70-4636-922d-7475746f7269,rev?*%
%TF.SameCoordinates,Original*%
%TF.FileFunction,Soldermask,Bot*%
%TF.FilePolarity,Negative*%
%FSLAX46Y46*%
G04 Gerber Fmt 4.6, Leading zero omitted, Abs format (unit mm)*
G04 Created by KiCad (PCBNEW (6.0.5)) date 2022-12-18 12:47:56*
%MOMM*%
%LPD*%
G01*
G04 APERTURE LIST*
G04 Aperture macros list*
%AMHorizOval*
0 Thick line with rounded ends*
0 $1 width*
0 $2 $3 position (X,Y) of the first rounded end (center of the circle)*
0 $4 $5 position (X,Y) of the second rounded end (center of the circle)*
0 Add line between two ends*
20,1,$1,$2,$3,$4,$5,0*
0 Add two circle primitives to create the rounded ends*
1,1,$1,$2,$3*
1,1,$1,$4,$5*%
G04 Aperture macros list end*
%ADD10R,1.200000X0.900000*%
%ADD11HorizOval,2.250000X0.020000X0.290000X-0.020000X-0.290000X0*%
%ADD12C,2.250000*%
%ADD13HorizOval,2.250000X0.655001X0.730000X-0.655001X-0.730000X0*%
%ADD14C,3.987800*%
%ADD15C,1.905000*%
%ADD16R,1.905000X1.905000*%
%ADD17C,1.750000*%
%ADD18O,2.700000X1.700000*%
G04 APERTURE END LIST*
D10*
%TO.C,D2*%
X162718750Y-123887500D03*
X162718750Y-120587500D03*
%TD*%
%TO.C,D4*%
X162718750Y-142937500D03*
X162718750Y-139637500D03*
%TD*%
D11*
%TO.C,MX4*%
X157301250Y-136497500D03*
D12*
X157321250Y-136207500D03*
D13*
X151626251Y-138017500D03*
D14*
X154781250Y-141287500D03*
D12*
X152281250Y-137287500D03*
D15*
X153511250Y-146367500D03*
D16*
X156051250Y-146367500D03*
D17*
X149701250Y-141287500D03*
X159861250Y-141287500D03*
%TD*%
D11*
%TO.C,MX1*%
X138251250Y-117447500D03*
D12*
X138271250Y-117157500D03*
D13*
X132576251Y-118967500D03*
D14*
X135731250Y-122237500D03*
D12*
X133231250Y-118237500D03*
D15*
X134461250Y-127317500D03*
D16*
X137001250Y-127317500D03*
D17*
X130651250Y-122237500D03*
X140811250Y-122237500D03*
%TD*%
D18*
%TO.C,USB1*%
X102131250Y-115412500D03*
X102131250Y-122712500D03*
X97631250Y-122712500D03*
X97631250Y-115412500D03*
%TD*%
D11*
%TO.C,MX3*%
X138251250Y-136497500D03*
D12*
X138271250Y-136207500D03*
D13*
X132576251Y-138017500D03*
D14*
X135731250Y-141287500D03*
D12*
X133231250Y-137287500D03*
D15*
X134461250Y-146367500D03*
D16*
X137001250Y-146367500D03*
D17*
X130651250Y-141287500D03*
X140811250Y-141287500D03*
%TD*%
%TO.C,MX2*%
X159861250Y-122237500D03*
X149701250Y-122237500D03*
D16*
X156051250Y-127317500D03*
D15*
X153511250Y-127317500D03*
D12*
X152281250Y-118237500D03*
D14*
X154781250Y-122237500D03*
D13*
X151626251Y-118967500D03*
D12*
X157321250Y-117157500D03*
D11*
X157301250Y-117447500D03*
%TD*%
D10*
%TO.C,D3*%
X143668750Y-142937500D03*
X143668750Y-139637500D03*
%TD*%
%TO.C,D1*%
X143668750Y-123887500D03*
X143668750Y-120587500D03*
%TD*%
M02*
