%TF.GenerationSoftware,KiCad,Pcbnew,(6.0.5)*%
%TF.CreationDate,2022-12-18T12:47:56-06:00*%
%TF.ProjectId,ai03-pcb-tutorial,61693033-2d70-4636-922d-7475746f7269,rev?*%
%TF.SameCoordinates,Original*%
%TF.FileFunction,Legend,Bot*%
%TF.FilePolarity,Positive*%
%FSLAX46Y46*%
G04 Gerber Fmt 4.6, Leading zero omitted, Abs format (unit mm)*
G04 Created by KiCad (PCBNEW (6.0.5)) date 2022-12-18 12:47:56*
%MOMM*%
%LPD*%
G01*
G04 APERTURE LIST*
%ADD10C,0.150000*%
%ADD11C,0.120000*%
G04 APERTURE END LIST*
D10*
%TO.C,D2*%
X165171130Y-121499404D02*
X164171130Y-121499404D01*
X164171130Y-121737500D01*
X164218750Y-121880357D01*
X164313988Y-121975595D01*
X164409226Y-122023214D01*
X164599702Y-122070833D01*
X164742559Y-122070833D01*
X164933035Y-122023214D01*
X165028273Y-121975595D01*
X165123511Y-121880357D01*
X165171130Y-121737500D01*
X165171130Y-121499404D01*
X164266369Y-122451785D02*
X164218750Y-122499404D01*
X164171130Y-122594642D01*
X164171130Y-122832738D01*
X164218750Y-122927976D01*
X164266369Y-122975595D01*
X164361607Y-123023214D01*
X164456845Y-123023214D01*
X164599702Y-122975595D01*
X165171130Y-122404166D01*
X165171130Y-123023214D01*
%TO.C,D4*%
X165171130Y-140549404D02*
X164171130Y-140549404D01*
X164171130Y-140787500D01*
X164218750Y-140930357D01*
X164313988Y-141025595D01*
X164409226Y-141073214D01*
X164599702Y-141120833D01*
X164742559Y-141120833D01*
X164933035Y-141073214D01*
X165028273Y-141025595D01*
X165123511Y-140930357D01*
X165171130Y-140787500D01*
X165171130Y-140549404D01*
X164504464Y-141977976D02*
X165171130Y-141977976D01*
X164123511Y-141739880D02*
X164837797Y-141501785D01*
X164837797Y-142120833D01*
%TO.C,D3*%
X146121130Y-140549404D02*
X145121130Y-140549404D01*
X145121130Y-140787500D01*
X145168750Y-140930357D01*
X145263988Y-141025595D01*
X145359226Y-141073214D01*
X145549702Y-141120833D01*
X145692559Y-141120833D01*
X145883035Y-141073214D01*
X145978273Y-141025595D01*
X146073511Y-140930357D01*
X146121130Y-140787500D01*
X146121130Y-140549404D01*
X145121130Y-141454166D02*
X145121130Y-142073214D01*
X145502083Y-141739880D01*
X145502083Y-141882738D01*
X145549702Y-141977976D01*
X145597321Y-142025595D01*
X145692559Y-142073214D01*
X145930654Y-142073214D01*
X146025892Y-142025595D01*
X146073511Y-141977976D01*
X146121130Y-141882738D01*
X146121130Y-141597023D01*
X146073511Y-141501785D01*
X146025892Y-141454166D01*
%TO.C,D1*%
X146121130Y-121499404D02*
X145121130Y-121499404D01*
X145121130Y-121737500D01*
X145168750Y-121880357D01*
X145263988Y-121975595D01*
X145359226Y-122023214D01*
X145549702Y-122070833D01*
X145692559Y-122070833D01*
X145883035Y-122023214D01*
X145978273Y-121975595D01*
X146073511Y-121880357D01*
X146121130Y-121737500D01*
X146121130Y-121499404D01*
X146121130Y-123023214D02*
X146121130Y-122451785D01*
X146121130Y-122737500D02*
X145121130Y-122737500D01*
X145263988Y-122642261D01*
X145359226Y-122547023D01*
X145406845Y-122451785D01*
D11*
%TO.C,D2*%
X163718750Y-124487500D02*
X163718750Y-120587500D01*
X163718750Y-124487500D02*
X161718750Y-124487500D01*
X161718750Y-124487500D02*
X161718750Y-120587500D01*
%TO.C,D4*%
X163718750Y-143537500D02*
X163718750Y-139637500D01*
X163718750Y-143537500D02*
X161718750Y-143537500D01*
X161718750Y-143537500D02*
X161718750Y-139637500D01*
%TO.C,D3*%
X144668750Y-143537500D02*
X144668750Y-139637500D01*
X144668750Y-143537500D02*
X142668750Y-143537500D01*
X142668750Y-143537500D02*
X142668750Y-139637500D01*
%TO.C,D1*%
X144668750Y-124487500D02*
X144668750Y-120587500D01*
X144668750Y-124487500D02*
X142668750Y-124487500D01*
X142668750Y-124487500D02*
X142668750Y-120587500D01*
%TD*%
M02*
