%TF.GenerationSoftware,KiCad,Pcbnew,(6.0.5)*%
%TF.CreationDate,2022-12-18T12:47:56-06:00*%
%TF.ProjectId,ai03-pcb-tutorial,61693033-2d70-4636-922d-7475746f7269,rev?*%
%TF.SameCoordinates,Original*%
%TF.FileFunction,Copper,L2,Bot*%
%TF.FilePolarity,Positive*%
%FSLAX46Y46*%
G04 Gerber Fmt 4.6, Leading zero omitted, Abs format (unit mm)*
G04 Created by KiCad (PCBNEW (6.0.5)) date 2022-12-18 12:47:56*
%MOMM*%
%LPD*%
G01*
G04 APERTURE LIST*
G04 Aperture macros list*
%AMHorizOval*
0 Thick line with rounded ends*
0 $1 width*
0 $2 $3 position (X,Y) of the first rounded end (center of the circle)*
0 $4 $5 position (X,Y) of the second rounded end (center of the circle)*
0 Add line between two ends*
20,1,$1,$2,$3,$4,$5,0*
0 Add two circle primitives to create the rounded ends*
1,1,$1,$2,$3*
1,1,$1,$4,$5*%
G04 Aperture macros list end*
%TA.AperFunction,SMDPad,CuDef*%
%ADD10R,1.200000X0.900000*%
%TD*%
%TA.AperFunction,ComponentPad*%
%ADD11HorizOval,2.250000X0.020000X0.290000X-0.020000X-0.290000X0*%
%TD*%
%TA.AperFunction,ComponentPad*%
%ADD12C,2.250000*%
%TD*%
%TA.AperFunction,ComponentPad*%
%ADD13HorizOval,2.250000X0.655001X0.730000X-0.655001X-0.730000X0*%
%TD*%
%TA.AperFunction,ComponentPad*%
%ADD14C,1.905000*%
%TD*%
%TA.AperFunction,ComponentPad*%
%ADD15R,1.905000X1.905000*%
%TD*%
%TA.AperFunction,ComponentPad*%
%ADD16O,2.700000X1.700000*%
%TD*%
%TA.AperFunction,ViaPad*%
%ADD17C,0.800000*%
%TD*%
%TA.AperFunction,Conductor*%
%ADD18C,0.254000*%
%TD*%
%TA.AperFunction,Conductor*%
%ADD19C,0.381000*%
%TD*%
G04 APERTURE END LIST*
D10*
%TO.P,D2,1,K*%
%TO.N,ROW0*%
X162718750Y-123887500D03*
%TO.P,D2,2,A*%
%TO.N,Net-(D2-Pad2)*%
X162718750Y-120587500D03*
%TD*%
%TO.P,D4,1,K*%
%TO.N,ROW1*%
X162718750Y-142937500D03*
%TO.P,D4,2,A*%
%TO.N,Net-(D4-Pad2)*%
X162718750Y-139637500D03*
%TD*%
D11*
%TO.P,MX4,2,ROW*%
%TO.N,Net-(D4-Pad2)*%
X157301250Y-136497500D03*
D12*
X157321250Y-136207500D03*
D13*
%TO.P,MX4,1,COL*%
%TO.N,COL1*%
X151626251Y-138017500D03*
D12*
X152281250Y-137287500D03*
D14*
%TO.P,MX4,3,LED*%
%TO.N,unconnected-(MX4-Pad3)*%
X153511250Y-146367500D03*
D15*
%TO.P,MX4,4,LEDGND*%
%TO.N,unconnected-(MX4-Pad4)*%
X156051250Y-146367500D03*
%TD*%
D11*
%TO.P,MX1,2,ROW*%
%TO.N,Net-(D1-Pad2)*%
X138251250Y-117447500D03*
D12*
X138271250Y-117157500D03*
D13*
%TO.P,MX1,1,COL*%
%TO.N,COL0*%
X132576251Y-118967500D03*
D12*
X133231250Y-118237500D03*
D14*
%TO.P,MX1,3,LED*%
%TO.N,unconnected-(MX1-Pad3)*%
X134461250Y-127317500D03*
D15*
%TO.P,MX1,4,LEDGND*%
%TO.N,unconnected-(MX1-Pad4)*%
X137001250Y-127317500D03*
%TD*%
D16*
%TO.P,USB1,6,SHIELD*%
%TO.N,unconnected-(USB1-Pad6)*%
X102131250Y-115412500D03*
X102131250Y-122712500D03*
X97631250Y-122712500D03*
X97631250Y-115412500D03*
%TD*%
D11*
%TO.P,MX3,2,ROW*%
%TO.N,Net-(D3-Pad2)*%
X138251250Y-136497500D03*
D12*
X138271250Y-136207500D03*
D13*
%TO.P,MX3,1,COL*%
%TO.N,COL0*%
X132576251Y-138017500D03*
D12*
X133231250Y-137287500D03*
D14*
%TO.P,MX3,3,LED*%
%TO.N,unconnected-(MX3-Pad3)*%
X134461250Y-146367500D03*
D15*
%TO.P,MX3,4,LEDGND*%
%TO.N,unconnected-(MX3-Pad4)*%
X137001250Y-146367500D03*
%TD*%
%TO.P,MX2,4,LEDGND*%
%TO.N,unconnected-(MX2-Pad4)*%
X156051250Y-127317500D03*
D14*
%TO.P,MX2,3,LED*%
%TO.N,unconnected-(MX2-Pad3)*%
X153511250Y-127317500D03*
D12*
%TO.P,MX2,1,COL*%
%TO.N,COL1*%
X152281250Y-118237500D03*
D13*
X151626251Y-118967500D03*
D12*
%TO.P,MX2,2,ROW*%
%TO.N,Net-(D2-Pad2)*%
X157321250Y-117157500D03*
D11*
X157301250Y-117447500D03*
%TD*%
D10*
%TO.P,D3,1,K*%
%TO.N,ROW1*%
X143668750Y-142937500D03*
%TO.P,D3,2,A*%
%TO.N,Net-(D3-Pad2)*%
X143668750Y-139637500D03*
%TD*%
%TO.P,D1,1,K*%
%TO.N,ROW0*%
X143668750Y-123887500D03*
%TO.P,D1,2,A*%
%TO.N,Net-(D1-Pad2)*%
X143668750Y-120587500D03*
%TD*%
D17*
%TO.N,+5V*%
X121443750Y-127793750D03*
X123031250Y-137318750D03*
X113506250Y-141287500D03*
X108743750Y-136525000D03*
X108755953Y-130162797D03*
X108743750Y-140493750D03*
%TO.N,COL0*%
X126206250Y-132556250D03*
%TO.N,COL1*%
X136525000Y-131762500D03*
X128587500Y-131762500D03*
%TO.N,+5V*%
X108743750Y-127793750D03*
%TD*%
D18*
%TO.N,ROW0*%
X161998329Y-124607921D02*
X162718750Y-123887500D01*
%TO.N,ROW1*%
X161998329Y-143657921D02*
X162718750Y-142937500D01*
D19*
%TO.N,+5V*%
X108743750Y-136525000D02*
X108743750Y-140493750D01*
X108743750Y-134937500D02*
X108743750Y-136525000D01*
X108743750Y-130175000D02*
X108755953Y-130162797D01*
X105568750Y-134937500D02*
X109537500Y-134937500D01*
X108743750Y-134937500D02*
X105568750Y-134937500D01*
D18*
%TO.N,COL0*%
X131921250Y-138271250D02*
X131921250Y-138747500D01*
X126206250Y-132556250D02*
X131921250Y-138271250D01*
%TO.N,COL1*%
X129381250Y-131762500D02*
X128587500Y-131762500D01*
X136525000Y-131762500D02*
X129381250Y-131762500D01*
D19*
%TO.N,+5V*%
X113506250Y-141287500D02*
X113506250Y-140493750D01*
X113506250Y-141287500D02*
X119856250Y-141287500D01*
X112712500Y-141287500D02*
X113506250Y-141287500D01*
X121443750Y-127793750D02*
X119856250Y-127793750D01*
X123031250Y-129381250D02*
X121443750Y-127793750D01*
X123031250Y-137318750D02*
X123031250Y-129381250D01*
X123031250Y-137318750D02*
X122237500Y-137318750D01*
X123031250Y-138112500D02*
X123031250Y-137318750D01*
X119856250Y-141287500D02*
X123031250Y-138112500D01*
X108743750Y-140493750D02*
X109537500Y-141287500D01*
X109537500Y-141287500D02*
X112712500Y-141287500D01*
X108743750Y-130175000D02*
X108743750Y-134937500D01*
X109537500Y-130968750D02*
X108743750Y-130175000D01*
X108743750Y-127793750D02*
X108743750Y-130175000D01*
D18*
%TO.N,Net-(D1-Pad2)*%
X141081250Y-120587500D02*
X138231250Y-117737500D01*
X143668750Y-120587500D02*
X141081250Y-120587500D01*
%TO.N,Net-(D3-Pad2)*%
X141081250Y-139637500D02*
X138231250Y-136787500D01*
X143668750Y-139637500D02*
X141081250Y-139637500D01*
%TO.N,Net-(D2-Pad2)*%
X160751250Y-120587500D02*
X157321250Y-117157500D01*
X162718750Y-120587500D02*
X160751250Y-120587500D01*
%TO.N,Net-(D4-Pad2)*%
X160131250Y-139637500D02*
X157281250Y-136787500D01*
X162718750Y-139637500D02*
X160131250Y-139637500D01*
%TO.N,ROW1*%
X144389171Y-143657921D02*
X161998329Y-143657921D01*
X143668750Y-142937500D02*
X144389171Y-143657921D01*
%TO.N,ROW0*%
X144389171Y-124607921D02*
X161998329Y-124607921D01*
X143668750Y-123887500D02*
X144389171Y-124607921D01*
%TD*%
M02*
